<svg width="60" height="60" viewBox="0 0 60 60" fill="none" xmlns="http://www.w3.org/2000/svg">
<g id="cs">
<path id="Vector" d="M52.5 20C53.8261 20 55.0979 20.5268 56.0355 21.4645C56.9732 22.4021 57.5 23.6739 57.5 25V35C57.5 36.3261 56.9732 37.5978 56.0355 38.5355C55.0979 39.4732 53.8261 40 52.5 40H49.845C49.2355 44.8332 46.8832 49.278 43.2294 52.5C39.5756 55.722 34.8715 57.4999 30 57.5V52.5C33.9782 52.5 37.7936 50.9197 40.6066 48.1066C43.4197 45.2936 45 41.4782 45 37.5V22.5C45 18.5217 43.4197 14.7064 40.6066 11.8934C37.7936 9.08035 33.9782 7.5 30 7.5C26.0218 7.5 22.2064 9.08035 19.3934 11.8934C16.5804 14.7064 15 18.5217 15 22.5V40H7.5C6.17392 40 4.90215 39.4732 3.96447 38.5355C3.02678 37.5978 2.5 36.3261 2.5 35V25C2.5 23.6739 3.02678 22.4021 3.96447 21.4645C4.90215 20.5268 6.17392 20 7.5 20H10.155C10.7651 15.1672 13.1177 10.7232 16.7714 7.50169C20.4252 4.28019 25.1289 2.50269 30 2.50269C34.8711 2.50269 39.5748 4.28019 43.2286 7.50169C46.8823 10.7232 49.2349 15.1672 49.845 20H52.5ZM19.4 39.4625L22.05 35.2225C24.4327 36.7151 27.1884 37.5045 30 37.5C32.8116 37.5045 35.5673 36.7151 37.95 35.2225L40.6 39.4625C37.4231 41.4529 33.7489 42.5058 30 42.5C26.2511 42.5059 22.5768 41.453 19.4 39.4625Z" fill="#999999"/>
</g>
</svg>
