<svg width="60" height="60" viewBox="0 0 60 60" fill="none" xmlns="http://www.w3.org/2000/svg">
<g id="eco">
<path id="Vector" d="M28.125 55C26.75 55 25.3642 54.8433 23.9675 54.53C22.5708 54.2167 21.1442 53.7692 19.6875 53.1875C20.1875 48.1458 21.6458 43.4375 24.0625 39.0625C26.4792 34.6875 29.5833 30.8333 33.375 27.5C28.7917 29.8333 24.8225 32.9167 21.4675 36.75C18.1125 40.5833 15.7692 44.9583 14.4375 49.875C14.2708 49.75 14.1142 49.615 13.9675 49.47L13.5 49C11.5417 47.0417 10.0517 44.8542 9.03 42.4375C8.00834 40.0208 7.49834 37.5 7.5 34.875C7.5 32.0417 8.0625 29.3333 9.1875 26.75C10.3125 24.1667 11.875 21.875 13.875 19.875C17.25 16.5 21.625 14.3025 27 13.2825C32.375 12.2625 39.9167 12.1683 49.625 13C50.375 22.9583 50.25 30.5525 49.25 35.7825C48.25 41.0125 46.0833 45.2933 42.75 48.625C40.7083 50.6667 38.4267 52.24 35.905 53.345C33.3833 54.45 30.79 55.0017 28.125 55Z" fill="#999999"/>
</g>
</svg>
