<svg width="1009" height="560" viewBox="0 0 1009 560" fill="none" xmlns="http://www.w3.org/2000/svg">
<path d="M548.502 397.976C542.187 397.976 536.726 396.483 532.118 393.496C527.51 390.424 523.969 386.285 521.494 381.08C519.019 375.875 517.782 370.115 517.782 363.8C517.782 357.4 519.147 351.64 521.878 346.52C524.609 341.315 528.534 337.219 533.654 334.232C538.774 331.16 544.918 329.624 552.086 329.624C558.998 329.624 564.929 331.117 569.878 334.104C574.827 337.091 578.625 341.144 581.27 346.264C584.001 351.384 585.366 357.101 585.366 363.416V396.44H573.462V383.128H573.206C571.926 385.603 570.177 387.992 567.958 390.296C565.825 392.515 563.137 394.349 559.894 395.8C556.651 397.251 552.854 397.976 548.502 397.976ZM551.574 387.864C555.841 387.864 559.595 386.84 562.838 384.792C566.166 382.659 568.726 379.757 570.518 376.088C572.395 372.333 573.334 368.152 573.334 363.544C573.334 359.021 572.438 354.968 570.646 351.384C568.939 347.8 566.465 344.984 563.222 342.936C559.979 340.803 556.182 339.736 551.83 339.736C547.222 339.736 543.254 340.803 539.926 342.936C536.683 345.069 534.166 347.971 532.374 351.64C530.667 355.224 529.814 359.32 529.814 363.928C529.814 368.365 530.667 372.419 532.374 376.088C534.081 379.672 536.555 382.531 539.798 384.664C543.041 386.797 546.966 387.864 551.574 387.864Z" fill="#57843A"/>
<path d="M386.002 397.976C379.687 397.976 374.226 396.483 369.618 393.496C365.01 390.424 361.469 386.285 358.994 381.08C356.519 375.875 355.282 370.115 355.282 363.8C355.282 357.4 356.647 351.64 359.378 346.52C362.109 341.315 366.034 337.219 371.154 334.232C376.274 331.16 382.418 329.624 389.586 329.624C396.498 329.624 402.429 331.117 407.378 334.104C412.327 337.091 416.125 341.144 418.77 346.264C421.501 351.384 422.866 357.101 422.866 363.416V396.44H410.962V383.128H410.706C409.426 385.603 407.677 387.992 405.458 390.296C403.325 392.515 400.637 394.349 397.394 395.8C394.151 397.251 390.354 397.976 386.002 397.976ZM389.074 387.864C393.341 387.864 397.095 386.84 400.338 384.792C403.666 382.659 406.226 379.757 408.018 376.088C409.895 372.333 410.834 368.152 410.834 363.544C410.834 359.021 409.938 354.968 408.146 351.384C406.439 347.8 403.965 344.984 400.722 342.936C397.479 340.803 393.682 339.736 389.33 339.736C384.722 339.736 380.754 340.803 377.426 342.936C374.183 345.069 371.666 347.971 369.874 351.64C368.167 355.224 367.314 359.32 367.314 363.928C367.314 368.365 368.167 372.419 369.874 376.088C371.581 379.672 374.055 382.531 377.298 384.664C380.541 386.797 384.466 387.864 389.074 387.864Z" fill="#57843A"/>
<path d="M328.366 396.44V303H340.142V396.44H328.366Z" fill="#57843A"/>
<path d="M272.752 397.976C266.437 397.976 260.976 396.483 256.368 393.496C251.76 390.424 248.219 386.285 245.744 381.08C243.269 375.875 242.032 370.115 242.032 363.8C242.032 357.4 243.397 351.64 246.128 346.52C248.859 341.315 252.784 337.219 257.904 334.232C263.024 331.16 269.168 329.624 276.336 329.624C283.248 329.624 289.179 331.117 294.128 334.104C299.077 337.091 302.875 341.144 305.52 346.264C308.251 351.384 309.616 357.101 309.616 363.416V396.44H297.712V383.128H297.456C296.176 385.603 294.427 387.992 292.208 390.296C290.075 392.515 287.387 394.349 284.144 395.8C280.901 397.251 277.104 397.976 272.752 397.976ZM275.824 387.864C280.091 387.864 283.845 386.84 287.088 384.792C290.416 382.659 292.976 379.757 294.768 376.088C296.645 372.333 297.584 368.152 297.584 363.544C297.584 359.021 296.688 354.968 294.896 351.384C293.189 347.8 290.715 344.984 287.472 342.936C284.229 340.803 280.432 339.736 276.08 339.736C271.472 339.736 267.504 340.803 264.176 342.936C260.933 345.069 258.416 347.971 256.624 351.64C254.917 355.224 254.064 359.32 254.064 363.928C254.064 368.365 254.917 372.419 256.624 376.088C258.331 379.672 260.805 382.531 264.048 384.664C267.291 386.797 271.216 387.864 275.824 387.864Z" fill="#57843A"/>
<path d="M121.366 396.44V357.144C121.366 352.109 122.518 347.501 124.822 343.32C127.126 339.139 130.454 335.811 134.806 333.336C139.158 330.861 144.406 329.624 150.55 329.624C153.537 329.624 156.523 330.051 159.51 330.904C162.497 331.672 165.27 333.037 167.83 335C170.39 336.877 172.438 339.437 173.974 342.68H174.102C175.809 339.437 177.942 336.877 180.502 335C183.062 333.037 185.835 331.672 188.822 330.904C191.809 330.051 194.838 329.624 197.91 329.624C203.969 329.624 209.174 330.861 213.526 333.336C217.878 335.811 221.206 339.139 223.51 343.32C225.814 347.501 226.966 352.109 226.966 357.144V396.44H215.19V357.144C215.19 353.901 214.422 350.957 212.886 348.312C211.35 345.667 209.259 343.576 206.614 342.04C204.054 340.504 201.11 339.736 197.782 339.736C194.539 339.736 191.553 340.547 188.822 342.168C186.091 343.704 183.915 345.795 182.294 348.44C180.758 351 179.99 353.901 179.99 357.144V396.44H168.214V357.144C168.214 353.901 167.403 351 165.782 348.44C164.246 345.795 162.113 343.704 159.382 342.168C156.737 340.547 153.75 339.736 150.422 339.736C147.179 339.736 144.235 340.504 141.59 342.04C139.03 343.576 136.982 345.667 135.446 348.312C133.91 350.957 133.142 353.901 133.142 357.144V396.44H121.366Z" fill="#57843A"/>
<path d="M90.866 396.44V331.16H102.77V396.44H90.866ZM96.882 320.792C94.7487 320.792 92.8714 320.024 91.25 318.488C89.714 316.867 88.946 314.989 88.946 312.856C88.946 310.723 89.714 308.888 91.25 307.352C92.8714 305.731 94.7487 304.92 96.882 304.92C99.0154 304.92 100.85 305.731 102.386 307.352C104.007 308.888 104.818 310.723 104.818 312.856C104.818 314.989 104.007 316.867 102.386 318.488C100.85 320.024 99.0154 320.792 96.882 320.792Z" fill="#57843A"/>
<path d="M0 396.44V306.84H12.288V345.368H59.52V306.84H71.808V396.44H59.52V356.248H12.288V396.44H0Z" fill="#57843A"/>
<path d="M1543.55 -1488.06C1554.03 -1488.06 1559.27 -1481.75 1559.26 -1469.13C1559.26 -1456.77 1554.06 -1450.49 1543.55 -1450.49H1499.57V-1411.49H1555.86C1566.33 -1411.49 1571.57 -1405.17 1571.57 -1392.55C1571.57 -1380.2 1566.37 -1373.91 1555.86 -1373.91H1481.75C1467.87 -1373.91 1461.85 -1380.56 1461.85 -1395.7V-1538.54C1461.85 -1553.74 1467.87 -1560.33 1481.75 -1560.33H1554.55C1565.03 -1560.33 1570.27 -1554.02 1570.26 -1541.41C1570.26 -1529.05 1565.06 -1522.76 1554.55 -1522.76H1499.57V-1488.06H1543.55Z" fill="#7DAA5F"/>
<path d="M1664.24 -1409.19C1673.4 -1409.19 1680.73 -1411.19 1688.07 -1416.07C1693.27 -1419.52 1696.98 -1422.66 1701.16 -1422.66C1709.83 -1422.66 1718.19 -1410.91 1718.19 -1402.01C1718.19 -1394.56 1712.42 -1387.68 1703.78 -1382.23C1692.5 -1375.06 1677.86 -1370.76 1661.62 -1370.76C1615.53 -1370.76 1580.18 -1405.75 1580.18 -1467.68C1580.18 -1529.34 1615.27 -1563.47 1661.36 -1563.47C1678.38 -1563.47 1693.31 -1558.88 1703.78 -1552.28C1712.45 -1546.83 1718.19 -1539.93 1718.19 -1532.78C1718.19 -1523.6 1709.28 -1511.56 1700.38 -1511.56C1696.19 -1511.56 1692.52 -1514.71 1687.29 -1518.15C1680.74 -1522.74 1671.83 -1525.03 1662.93 -1525.03C1640.15 -1525.03 1621.03 -1508.41 1621.03 -1467.97C1621.07 -1427.26 1640.67 -1409.19 1664.24 -1409.19Z" fill="#7DAA5F"/>
<path d="M1808.96 -1563.77C1860.02 -1563.77 1893.01 -1526.78 1893.01 -1467.12C1893.01 -1407.46 1860.05 -1370.47 1808.96 -1370.47C1757.87 -1370.47 1724.9 -1407.47 1724.9 -1467.12C1724.9 -1526.77 1757.89 -1563.77 1808.96 -1563.77ZM1808.96 -1408.33C1834.88 -1408.33 1852.17 -1429.55 1852.17 -1467.12C1852.17 -1504.69 1834.88 -1525.92 1808.96 -1525.92C1783.04 -1525.92 1765.75 -1504.69 1765.75 -1467.12C1765.75 -1429.55 1783.04 -1408.33 1808.96 -1408.33Z" fill="#7DAA5F"/>
<path d="M544.508 177.805C502.111 206.139 494.095 254.769 499.048 295.047C518.351 280.044 566.109 295.874 605.391 268.898C654.338 235.29 657.582 170.08 649.228 137.897C627.418 170.412 591.32 146.515 544.508 177.805Z" fill="#89BC68"/>
<path d="M402.504 245.882C429.805 264.61 435.106 296.489 432 322.847C419.568 312.946 388.961 323.141 363.672 305.325C332.146 283.129 329.838 240.409 335.122 219.344C349.271 240.732 372.357 225.216 402.504 245.882Z" fill="#658C4A"/>
<path d="M1942.96 -1500.34C1939.33 -1500.34 1936.06 -1501.02 1933.16 -1502.38C1930.25 -1503.8 1927.97 -1505.79 1926.31 -1508.35C1924.65 -1510.9 1923.82 -1513.89 1923.82 -1517.3H1933.31C1933.52 -1514.74 1934.43 -1512.64 1936.04 -1510.99C1937.7 -1509.34 1940 -1508.52 1942.96 -1508.52C1946.02 -1508.52 1948.41 -1509.31 1950.12 -1510.9C1951.83 -1512.55 1952.69 -1514.65 1952.69 -1517.21C1952.69 -1519.2 1952.14 -1520.82 1951.05 -1522.07C1950.01 -1523.32 1948.69 -1524.29 1947.08 -1524.97C1945.53 -1525.65 1943.35 -1526.39 1940.55 -1527.18C1937.02 -1528.21 1934.14 -1529.23 1931.91 -1530.25C1929.73 -1531.33 1927.87 -1532.98 1926.31 -1535.19C1924.75 -1537.41 1923.98 -1540.36 1923.98 -1544.06C1923.98 -1547.47 1924.75 -1550.45 1926.31 -1553.01C1927.87 -1555.56 1930.04 -1557.52 1932.85 -1558.89C1935.65 -1560.25 1938.89 -1560.93 1942.57 -1560.93C1947.81 -1560.93 1952.09 -1559.48 1955.41 -1556.59C1958.78 -1553.74 1960.65 -1549.82 1961.01 -1544.82H1951.21C1951.05 -1546.98 1950.12 -1548.83 1948.41 -1550.36C1946.69 -1551.9 1944.44 -1552.67 1941.64 -1552.67C1939.1 -1552.67 1937.02 -1551.95 1935.41 -1550.53C1933.81 -1549.11 1933 -1547.07 1933 -1544.4C1933 -1542.58 1933.49 -1541.07 1934.48 -1539.88C1935.52 -1538.74 1936.81 -1537.84 1938.37 -1537.15C1939.93 -1536.47 1942.05 -1535.73 1944.75 -1534.94C1948.33 -1533.86 1951.23 -1532.78 1953.46 -1531.7C1955.75 -1530.62 1957.67 -1528.94 1959.22 -1526.67C1960.83 -1524.46 1961.63 -1521.47 1961.63 -1517.72C1961.63 -1514.71 1960.88 -1511.87 1959.38 -1509.2C1957.92 -1506.53 1955.77 -1504.37 1952.92 -1502.72C1950.12 -1501.13 1946.8 -1500.34 1942.96 -1500.34Z" fill="#658C4A"/>
<path d="M1994.27 -1548.66C1997.54 -1548.66 2000.45 -1547.89 2002.99 -1546.36C2005.58 -1544.82 2007.6 -1542.55 2009.06 -1539.54C2010.56 -1536.53 2011.31 -1532.89 2011.31 -1528.63V-1500.93H2002.52V-1527.18C2002.52 -1531.39 2001.56 -1534.6 1999.64 -1536.81C1997.72 -1539.09 1995.1 -1540.22 1991.78 -1540.22C1988.46 -1540.22 1985.82 -1539.09 1983.85 -1536.81C1981.93 -1534.6 1980.97 -1531.39 1980.97 -1527.18V-1500.93H1972.1V-1564H1980.97V-1542.44C1982.47 -1544.43 1984.37 -1545.96 1986.65 -1547.04C1988.98 -1548.12 1991.52 -1548.66 1994.27 -1548.66Z" fill="#658C4A"/>
<path d="M2041.22 -1500.17C2037.18 -1500.17 2033.52 -1501.16 2030.25 -1503.15C2026.98 -1505.19 2024.42 -1508.04 2022.55 -1511.67C2020.68 -1515.36 2019.75 -1519.63 2019.75 -1524.46C2019.75 -1529.23 2020.71 -1533.46 2022.63 -1537.15C2024.55 -1540.85 2027.17 -1543.69 2030.49 -1545.68C2033.8 -1547.67 2037.51 -1548.66 2041.61 -1548.66C2045.71 -1548.66 2049.42 -1547.67 2052.74 -1545.68C2056.06 -1543.69 2058.68 -1540.85 2060.6 -1537.15C2062.51 -1533.46 2063.47 -1529.23 2063.47 -1524.46C2063.47 -1519.68 2062.49 -1515.45 2060.52 -1511.76C2058.55 -1508.06 2055.85 -1505.19 2052.43 -1503.15C2049.05 -1501.16 2045.32 -1500.17 2041.22 -1500.17ZM2041.22 -1508.6C2043.5 -1508.6 2045.63 -1509.2 2047.6 -1510.39C2049.63 -1511.59 2051.26 -1513.38 2052.5 -1515.76C2053.75 -1518.15 2054.37 -1521.05 2054.37 -1524.46C2054.37 -1527.86 2053.77 -1530.73 2052.58 -1533.06C2051.39 -1535.45 2049.81 -1537.24 2047.84 -1538.43C2045.86 -1539.63 2043.74 -1540.22 2041.46 -1540.22C2039.17 -1540.22 2037.05 -1539.63 2035.08 -1538.43C2033.16 -1537.24 2031.63 -1535.45 2030.49 -1533.06C2029.34 -1530.73 2028.77 -1527.86 2028.77 -1524.46C2028.77 -1519.4 2029.94 -1515.48 2032.27 -1512.69C2034.66 -1509.97 2037.64 -1508.6 2041.22 -1508.6Z" fill="#658C4A"/>
<path d="M2081.11 -1540.99C2082.62 -1543.15 2084.67 -1544.97 2087.26 -1546.44C2089.85 -1547.92 2092.78 -1548.66 2096.05 -1548.66C2099.79 -1548.66 2103.18 -1547.64 2106.24 -1545.59C2109.36 -1543.6 2111.79 -1540.79 2113.56 -1537.15C2115.32 -1533.52 2116.2 -1529.34 2116.2 -1524.63C2116.2 -1519.91 2115.32 -1515.68 2113.56 -1511.93C2111.79 -1508.23 2109.36 -1505.34 2106.24 -1503.23C2103.18 -1501.19 2099.79 -1500.17 2096.05 -1500.17C2092.78 -1500.17 2089.88 -1500.88 2087.34 -1502.3C2084.8 -1503.77 2082.72 -1505.59 2081.11 -1507.75V-1478.6H2072.24V-1547.89H2081.11V-1540.99ZM2107.18 -1524.63C2107.18 -1527.86 2106.55 -1530.65 2105.31 -1532.98C2104.12 -1535.36 2102.51 -1537.15 2100.49 -1538.35C2098.51 -1539.6 2096.39 -1540.22 2094.11 -1540.22C2091.88 -1540.22 2089.75 -1539.6 2087.73 -1538.35C2085.75 -1537.1 2084.15 -1535.28 2082.9 -1532.89C2081.71 -1530.51 2081.11 -1527.69 2081.11 -1524.46C2081.11 -1521.22 2081.71 -1518.38 2082.9 -1515.93C2084.15 -1513.55 2085.75 -1511.73 2087.73 -1510.48C2089.75 -1509.23 2091.88 -1508.6 2094.11 -1508.6C2096.39 -1508.6 2098.51 -1509.23 2100.49 -1510.48C2102.51 -1511.79 2104.12 -1513.66 2105.31 -1516.1C2106.55 -1518.55 2107.18 -1521.39 2107.18 -1524.63Z" fill="#658C4A"/>
<path d="M544.508 177.805C502.111 206.139 494.095 254.769 499.048 295.047C518.351 280.044 566.109 295.874 605.391 268.898C654.338 235.29 657.582 170.08 649.228 137.897C627.418 170.412 591.32 146.515 544.508 177.805Z" fill="#89BC68"/>
<path d="M402.504 245.882C429.805 264.61 435.106 296.489 432 322.847C419.568 312.946 388.961 323.141 363.672 305.325C332.146 283.129 329.838 240.409 335.122 219.344C349.271 240.732 372.357 225.216 402.504 245.882Z" fill="#658C4A"/>
<path d="M403.282 297.828L481.315 337.202L466.97 357.688L403.282 297.828Z" fill="#E5BFA2"/>
<path d="M523.807 259.087L479.085 334.183L459.65 318.445L523.807 259.087Z" fill="#E5BFA2"/>
<path d="M468.5 217L497.512 474.25H439.488L468.5 217Z" fill="#658C4A"/>
<path d="M708.423 470V463.339H728.851C730.191 463.339 731.335 463.058 732.284 462.496C733.288 461.878 734.042 461.091 734.544 460.135C735.047 459.18 735.298 458.168 735.298 457.1C735.298 456.088 735.074 455.161 734.628 454.318C734.181 453.418 733.484 452.716 732.535 452.21C731.642 451.648 730.553 451.367 729.27 451.367H720.646C717.912 451.367 715.512 450.917 713.447 450.018C711.437 449.062 709.847 447.685 708.674 445.886C707.558 444.088 707 441.895 707 439.31C707 437.118 707.53 435.094 708.591 433.239C709.651 431.384 711.13 429.895 713.028 428.771C714.926 427.59 717.102 427 719.558 427H739.233V433.661H720.312C718.581 433.661 717.214 434.195 716.209 435.263C715.205 436.331 714.702 437.595 714.702 439.057C714.702 440.462 715.205 441.699 716.209 442.767C717.27 443.778 718.749 444.284 720.646 444.284H728.851C731.921 444.284 734.488 444.79 736.553 445.802C738.674 446.758 740.265 448.163 741.326 450.018C742.442 451.873 743 454.149 743 456.847C743 459.152 742.442 461.316 741.326 463.339C740.209 465.307 738.647 466.908 736.637 468.145C734.684 469.382 732.395 470 729.772 470H708.423Z" fill="#57843A"/>
<path d="M689.69 470C685.859 470 682.845 468.9 680.648 466.699C678.507 464.498 677.437 461.508 677.437 457.727V416H685.211V457.219C685.211 459.082 685.718 460.577 686.732 461.705C687.803 462.777 689.268 463.313 691.127 463.313H699.831V470H689.69ZM670 433.52V426.834H700V433.52H670Z" fill="#57843A"/>
<path d="M644.5 471C640.134 471 636.272 470.017 632.914 468.051C629.556 466.028 626.897 463.331 624.938 459.961C622.979 456.534 622 452.713 622 448.5C622 444.287 622.979 440.494 624.938 437.124C626.897 433.697 629.556 431 632.914 429.034C636.272 427.011 640.134 426 644.5 426C648.866 426 652.728 427.011 656.086 429.034C659.5 431 662.159 433.669 664.062 437.039C666.021 440.41 667 444.23 667 448.5C667 452.713 666.021 456.534 664.062 459.961C662.159 463.331 659.5 466.028 656.086 468.051C652.728 470.017 648.866 471 644.5 471ZM644.5 464.343C647.466 464.343 650.041 463.64 652.224 462.236C654.407 460.831 656.114 458.949 657.345 456.59C658.576 454.174 659.192 451.478 659.192 448.5C659.192 445.522 658.576 442.854 657.345 440.494C656.114 438.079 654.407 436.169 652.224 434.764C650.041 433.36 647.466 432.657 644.5 432.657C641.59 432.657 639.015 433.36 636.776 434.764C634.593 436.169 632.886 438.079 631.655 440.494C630.424 442.854 629.808 445.522 629.808 448.5C629.808 451.478 630.424 454.174 631.655 456.59C632.886 458.949 634.593 460.831 636.776 462.236C639.015 463.64 641.59 464.343 644.5 464.343Z" fill="#57843A"/>
<path d="M592.5 471C588.134 471 584.272 470.017 580.914 468.051C577.556 466.028 574.897 463.331 572.938 459.961C570.979 456.534 570 452.713 570 448.5C570 444.287 570.979 440.494 572.938 437.124C574.897 433.697 577.556 431 580.914 429.034C584.272 427.011 588.134 426 592.5 426C596.866 426 600.728 427.011 604.086 429.034C607.5 431 610.159 433.669 612.062 437.039C614.021 440.41 615 444.23 615 448.5C615 452.713 614.021 456.534 612.062 459.961C610.159 463.331 607.5 466.028 604.086 468.051C600.728 470.017 596.866 471 592.5 471ZM592.5 464.343C595.466 464.343 598.041 463.64 600.224 462.236C602.407 460.831 604.114 458.949 605.345 456.59C606.576 454.174 607.192 451.478 607.192 448.5C607.192 445.522 606.576 442.854 605.345 440.494C604.114 438.079 602.407 436.169 600.224 434.764C598.041 433.36 595.466 432.657 592.5 432.657C589.59 432.657 587.015 433.36 584.776 434.764C582.593 436.169 580.886 438.079 579.655 440.494C578.424 442.854 577.808 445.522 577.808 448.5C577.808 451.478 578.424 454.174 579.655 456.59C580.886 458.949 582.593 460.831 584.776 462.236C587.015 463.64 589.59 464.343 592.5 464.343Z" fill="#57843A"/>
<path d="M518 470V411H543.759C547.45 411 550.807 411.815 553.827 413.444C556.848 415.018 559.253 417.265 561.043 420.187C562.833 423.053 563.728 426.424 563.728 430.301C563.728 434.235 562.721 437.719 560.707 440.753C558.749 443.731 556.092 445.95 552.736 447.411L559.029 460.223C559.477 461.122 559.952 461.796 560.455 462.246C561.015 462.639 561.798 462.836 562.805 462.836H567V470H561.546C559.365 470 557.435 469.438 555.757 468.314C554.135 467.19 552.792 465.673 551.729 463.763L544.682 449.35C544.122 449.406 543.507 449.462 542.836 449.519C542.22 449.519 541.577 449.519 540.906 449.519H526.055V470H518ZM526.055 442.354H542.668C545.073 442.354 547.255 441.877 549.212 440.921C551.226 439.966 552.792 438.59 553.911 436.791C555.086 434.993 555.673 432.83 555.673 430.301C555.673 427.717 555.086 425.525 553.911 423.727C552.736 421.929 551.17 420.552 549.212 419.597C547.255 418.642 545.101 418.164 542.752 418.164H526.055V442.354Z" fill="#57843A"/>
</svg>
