<svg width="6028" height="2602" viewBox="0 0 6028 2602" fill="none" xmlns="http://www.w3.org/2000/svg">
<path d="M4567.91 1763C4515.31 1763 4469.81 1751.05 4431.42 1727.15C4393.04 1702.56 4363.54 1669.44 4342.92 1627.79C4322.31 1586.13 4312 1540.03 4312 1489.5C4312 1438.28 4323.37 1392.19 4346.12 1351.21C4368.87 1309.56 4401.57 1276.78 4444.22 1252.88C4486.87 1228.29 4538.05 1216 4597.77 1216C4655.34 1216 4704.75 1227.95 4745.98 1251.85C4787.21 1275.75 4818.84 1308.19 4840.88 1349.16C4863.63 1390.14 4875 1435.89 4875 1486.43V1750.71H4775.84V1644.18H4773.7C4763.04 1663.98 4748.47 1683.1 4729.98 1701.54C4712.21 1719.29 4689.82 1733.98 4662.81 1745.59C4635.8 1757.2 4604.16 1763 4567.91 1763ZM4593.5 1682.08C4629.04 1682.08 4660.32 1673.88 4687.33 1657.49C4715.06 1640.42 4736.38 1617.2 4751.31 1587.84C4766.95 1557.79 4774.77 1524.33 4774.77 1487.45C4774.77 1451.26 4767.31 1418.82 4752.38 1390.14C4738.16 1361.46 4717.54 1338.92 4690.53 1322.53C4663.52 1305.46 4631.89 1296.92 4595.63 1296.92C4557.25 1296.92 4524.19 1305.46 4496.47 1322.53C4469.46 1339.6 4448.48 1362.82 4433.56 1392.19C4419.34 1420.87 4412.23 1453.65 4412.23 1490.52C4412.23 1526.03 4419.34 1558.47 4433.56 1587.84C4447.77 1616.52 4468.39 1639.4 4495.4 1656.47C4522.41 1673.54 4555.11 1682.08 4593.5 1682.08Z" fill="#658C4A"/>
<path d="M3214.91 1763C3162.31 1763 3116.81 1751.05 3078.42 1727.15C3040.04 1702.56 3010.54 1669.44 2989.92 1627.79C2969.31 1586.13 2959 1540.03 2959 1489.5C2959 1438.28 2970.37 1392.19 2993.12 1351.21C3015.87 1309.56 3048.57 1276.78 3091.22 1252.88C3133.87 1228.29 3185.05 1216 3244.77 1216C3302.34 1216 3351.75 1227.95 3392.98 1251.85C3434.21 1275.75 3465.84 1308.19 3487.88 1349.16C3510.63 1390.14 3522 1435.89 3522 1486.43V1750.71H3422.84V1644.18H3420.7C3410.04 1663.98 3395.47 1683.1 3376.98 1701.54C3359.21 1719.29 3336.82 1733.98 3309.81 1745.59C3282.8 1757.2 3251.16 1763 3214.91 1763ZM3240.5 1682.08C3276.04 1682.08 3307.32 1673.88 3334.33 1657.49C3362.06 1640.42 3383.38 1617.2 3398.31 1587.84C3413.95 1557.79 3421.77 1524.33 3421.77 1487.45C3421.77 1451.26 3414.3 1418.82 3399.38 1390.14C3385.16 1361.46 3364.54 1338.92 3337.53 1322.53C3310.52 1305.46 3278.89 1296.92 3242.63 1296.92C3204.25 1296.92 3171.19 1305.46 3143.47 1322.53C3116.46 1339.6 3095.48 1362.82 3080.56 1392.19C3066.34 1420.87 3059.23 1453.65 3059.23 1490.52C3059.23 1526.03 3066.34 1558.47 3080.56 1587.84C3094.77 1616.52 3115.39 1639.4 3142.4 1656.47C3169.41 1673.54 3202.11 1682.08 3240.5 1682.08Z" fill="#658C4A"/>
<path d="M2734 1751V1003H2833V1751H2734Z" fill="#658C4A"/>
<path d="M2270.91 1763C2218.31 1763 2172.81 1751.05 2134.42 1727.15C2096.04 1702.56 2066.54 1669.44 2045.92 1627.79C2025.31 1586.13 2015 1540.03 2015 1489.5C2015 1438.28 2026.37 1392.19 2049.12 1351.21C2071.87 1309.56 2104.57 1276.78 2147.22 1252.88C2189.87 1228.29 2241.05 1216 2300.77 1216C2358.34 1216 2407.75 1227.95 2448.98 1251.85C2490.21 1275.75 2521.84 1308.19 2543.88 1349.16C2566.63 1390.14 2578 1435.89 2578 1486.43V1750.71H2478.84V1644.18H2476.7C2466.04 1663.98 2451.47 1683.1 2432.98 1701.54C2415.21 1719.29 2392.82 1733.98 2365.81 1745.59C2338.8 1757.2 2307.16 1763 2270.91 1763ZM2296.5 1682.08C2332.04 1682.08 2363.32 1673.88 2390.33 1657.49C2418.06 1640.42 2439.38 1617.2 2454.31 1587.84C2469.95 1557.79 2477.77 1524.33 2477.77 1487.45C2477.77 1451.26 2470.3 1418.82 2455.38 1390.14C2441.16 1361.46 2420.54 1338.92 2393.53 1322.53C2366.52 1305.46 2334.89 1296.92 2298.63 1296.92C2260.25 1296.92 2227.19 1305.46 2199.47 1322.53C2172.46 1339.6 2151.48 1362.82 2136.56 1392.19C2122.34 1420.87 2115.23 1453.65 2115.23 1490.52C2115.23 1526.03 2122.34 1558.47 2136.56 1587.84C2150.77 1616.52 2171.39 1639.4 2198.4 1656.47C2225.41 1673.54 2258.11 1682.08 2296.5 1682.08Z" fill="#658C4A"/>
<path d="M1011 1751V1436.35C1011 1396.04 1020.59 1359.14 1039.77 1325.66C1058.95 1292.18 1086.65 1265.54 1122.87 1245.72C1159.1 1225.91 1202.78 1216 1253.92 1216C1278.78 1216 1303.64 1219.42 1328.51 1226.25C1353.37 1232.4 1376.45 1243.33 1397.76 1259.05C1419.07 1274.08 1436.12 1294.58 1448.9 1320.54H1449.97C1464.17 1294.58 1481.93 1274.08 1503.24 1259.05C1524.55 1243.33 1547.63 1232.4 1572.49 1226.25C1597.36 1219.42 1622.57 1216 1648.14 1216C1698.57 1216 1741.9 1225.91 1778.13 1245.72C1814.35 1265.54 1842.05 1292.18 1861.23 1325.66C1880.41 1359.14 1890 1396.04 1890 1436.35V1751H1791.98V1436.35C1791.98 1410.39 1785.59 1386.82 1772.8 1365.64C1760.01 1344.45 1742.61 1327.71 1720.59 1315.42C1699.28 1303.12 1674.78 1296.97 1647.08 1296.97C1620.08 1296.97 1595.22 1303.46 1572.49 1316.44C1549.76 1328.74 1531.65 1345.48 1518.16 1366.66C1505.37 1387.16 1498.98 1410.39 1498.98 1436.35V1751H1400.96V1436.35C1400.96 1410.39 1394.21 1387.16 1380.71 1366.66C1367.93 1345.48 1350.17 1328.74 1327.44 1316.44C1305.42 1303.46 1280.56 1296.97 1252.86 1296.97C1225.87 1296.97 1201.36 1303.12 1179.34 1315.42C1158.03 1327.71 1140.99 1344.45 1128.2 1365.64C1115.41 1386.82 1109.02 1410.39 1109.02 1436.35V1751H1011Z" fill="#658C4A"/>
<path d="M756.968 1751V1228.87H855.968V1751H756.968ZM807 1145.95C789.258 1145.95 773.645 1139.81 760.161 1127.52C747.387 1114.55 741 1099.54 741 1082.47C741 1065.41 747.387 1050.74 760.161 1038.45C773.645 1025.48 789.258 1019 807 1019C824.742 1019 840 1025.48 852.774 1038.45C866.258 1050.74 873 1065.41 873 1082.47C873 1099.54 866.258 1114.55 852.774 1127.52C840 1139.81 824.742 1145.95 807 1145.95Z" fill="#658C4A"/>
<path d="M0 1751V1033H102.503V1341.74H496.497V1033H599V1751H496.497V1428.93H102.503V1751H0Z" fill="#658C4A"/>
<path d="M9064.84 -4533.83C9113.07 -4533.83 9137.18 -4513.62 9137.15 -4473.19C9137.15 -4433.64 9113.19 -4413.53 9064.84 -4413.53H8862.38V-4288.63H9121.5C9169.68 -4288.63 9193.79 -4268.42 9193.81 -4227.99C9193.81 -4188.43 9169.85 -4168.29 9121.5 -4168.29H8780.41C8716.52 -4168.29 8688.8 -4189.59 8688.8 -4238.09V-4695.46C8688.8 -4744.14 8716.52 -4765.26 8780.41 -4765.26H9115.47C9163.7 -4765.26 9187.81 -4745.05 9187.78 -4704.65C9187.78 -4665.09 9163.82 -4644.95 9115.47 -4644.95H8862.38V-4533.83H9064.84Z" fill="#658C4A"/>
<path d="M9620.35 -4281.27C9662.52 -4281.27 9696.22 -4287.69 9730 -4303.29C9753.96 -4314.34 9771.01 -4324.41 9790.26 -4324.41C9830.19 -4324.41 9868.64 -4286.77 9868.64 -4258.29C9868.64 -4234.44 9842.09 -4212.38 9802.32 -4194.95C9750.41 -4171.97 9683 -4158.22 9608.29 -4158.22C9396.14 -4158.22 9233.42 -4270.25 9233.42 -4468.57C9233.42 -4666.01 9394.94 -4775.3 9607.1 -4775.3C9685.44 -4775.3 9754.12 -4760.6 9802.32 -4739.49C9842.25 -4722.02 9868.64 -4699.93 9868.64 -4677.02C9868.64 -4647.63 9827.63 -4609.08 9786.67 -4609.08C9767.38 -4609.08 9750.49 -4619.18 9726.41 -4630.19C9696.26 -4644.89 9655.29 -4652.22 9614.32 -4652.22C9509.47 -4652.22 9421.46 -4598.98 9421.46 -4469.48C9421.66 -4339.14 9511.86 -4281.27 9620.35 -4281.27Z" fill="#658C4A"/>
<path d="M10286.4 -4776.27C10521.5 -4776.27 10673.3 -4657.82 10673.3 -4466.77C10673.3 -4275.73 10521.6 -4157.28 10286.4 -4157.28C10051.3 -4157.28 9899.55 -4275.76 9899.55 -4466.77C9899.55 -4657.79 10051.4 -4776.27 10286.4 -4776.27ZM10286.4 -4278.53C10405.8 -4278.53 10485.3 -4346.47 10485.3 -4466.77C10485.3 -4587.08 10405.8 -4655.05 10286.4 -4655.05C10167.1 -4655.05 10087.6 -4587.08 10087.6 -4466.77C10087.6 -4346.47 10167.1 -4278.53 10286.4 -4278.53Z" fill="#658C4A"/>
<path d="M4280.27 756.189C4085.13 846.921 4048.24 1002.64 4071.04 1131.62C4159.88 1083.58 4379.7 1134.27 4560.5 1047.89C4785.79 940.268 4800.73 731.452 4762.27 628.398C4661.89 732.517 4495.74 655.996 4280.27 756.189Z" fill="#658C4A"/>
<path d="M3616.28 980.272C3741.94 1040.24 3766.34 1142.32 3752.04 1226.73C3694.82 1195.02 3553.94 1227.67 3437.55 1170.62C3292.44 1099.54 3171.18 862.645 3195.5 795.189C3260.63 863.679 3477.52 914.095 3616.28 980.272Z" fill="#658C4A"/>
<path d="M10903.2 -4573.14C10886.5 -4573.14 10871.5 -4575.32 10858.1 -4579.69C10844.7 -4584.24 10834.2 -4590.61 10826.6 -4598.79C10818.9 -4606.98 10815.1 -4616.53 10815.1 -4627.45H10858.8C10859.8 -4619.26 10863.9 -4612.53 10871.3 -4607.25C10879 -4601.98 10889.6 -4599.34 10903.2 -4599.34C10917.3 -4599.34 10928.3 -4601.89 10936.2 -4606.98C10944 -4612.26 10948 -4618.99 10948 -4627.18C10948 -4633.54 10945.5 -4638.73 10940.5 -4642.73C10935.7 -4646.73 10929.6 -4649.83 10922.2 -4652.01C10915 -4654.19 10905 -4656.56 10892.1 -4659.11C10875.9 -4662.38 10862.6 -4665.65 10852.4 -4668.93C10842.3 -4672.39 10833.7 -4677.66 10826.6 -4684.76C10819.4 -4691.85 10815.8 -4701.31 10815.8 -4713.14C10815.8 -4724.06 10819.4 -4733.61 10826.6 -4741.8C10833.7 -4749.98 10843.8 -4756.26 10856.7 -4760.63C10869.6 -4764.99 10884.5 -4767.18 10901.4 -4767.18C10925.5 -4767.18 10945.2 -4762.54 10960.5 -4753.26C10976 -4744.16 10984.6 -4731.61 10986.3 -4715.6H10941.2C10940.5 -4722.51 10936.2 -4728.42 10928.3 -4733.34C10920.4 -4738.25 10910 -4740.7 10897.1 -4740.7C10885.4 -4740.7 10875.9 -4738.43 10868.5 -4733.88C10861.1 -4729.33 10857.4 -4722.78 10857.4 -4714.23C10857.4 -4708.41 10859.6 -4703.59 10864.2 -4699.77C10869 -4696.13 10874.9 -4693.22 10882.1 -4691.03C10889.3 -4688.85 10899 -4686.49 10911.5 -4683.94C10927.9 -4680.48 10941.3 -4677.03 10951.6 -4673.57C10962.1 -4670.11 10970.9 -4664.75 10978.1 -4657.47C10985.5 -4650.37 10989.2 -4640.82 10989.2 -4628.81C10989.2 -4619.17 10985.7 -4610.07 10978.8 -4601.52C10972.1 -4592.97 10962.2 -4586.06 10949.1 -4580.78C10936.2 -4575.69 10920.9 -4573.14 10903.2 -4573.14Z" fill="#658C4A"/>
<path d="M11139.4 -4727.88C11154.4 -4727.88 11167.8 -4725.42 11179.5 -4720.51C11191.4 -4715.6 11200.8 -4708.32 11207.4 -4698.68C11214.4 -4689.03 11217.8 -4677.39 11217.8 -4663.74V-4575.05H11177.4V-4659.11C11177.4 -4672.57 11172.9 -4682.85 11164.1 -4689.94C11155.3 -4697.22 11143.2 -4700.86 11127.9 -4700.86C11112.7 -4700.86 11100.5 -4697.22 11091.4 -4689.94C11082.6 -4682.85 11078.2 -4672.57 11078.2 -4659.11V-4575.05H11037.3V-4777H11078.2V-4707.96C11085.1 -4714.32 11093.8 -4719.24 11104.3 -4722.69C11115 -4726.15 11126.7 -4727.88 11139.4 -4727.88Z" fill="#658C4A"/>
<path d="M11355.5 -4572.59C11336.9 -4572.59 11320 -4575.78 11305 -4582.15C11290 -4588.7 11278.1 -4597.79 11269.5 -4609.44C11261 -4621.26 11256.7 -4634.91 11256.7 -4650.37C11256.7 -4665.65 11261.1 -4679.21 11269.9 -4691.03C11278.7 -4702.86 11290.8 -4711.96 11306.1 -4718.33C11321.4 -4724.69 11338.4 -4727.88 11357.3 -4727.88C11376.2 -4727.88 11393.2 -4724.69 11408.5 -4718.33C11423.8 -4711.96 11435.8 -4702.86 11444.7 -4691.03C11453.5 -4679.21 11457.9 -4665.65 11457.9 -4650.37C11457.9 -4635.09 11453.4 -4621.54 11444.3 -4609.71C11435.2 -4597.88 11422.8 -4588.7 11407.1 -4582.15C11391.5 -4575.78 11374.4 -4572.59 11355.5 -4572.59ZM11355.5 -4599.61C11366 -4599.61 11375.8 -4601.52 11384.9 -4605.34C11394.2 -4609.16 11401.7 -4614.89 11407.4 -4622.54C11413.2 -4630.18 11416 -4639.46 11416 -4650.37C11416 -4661.29 11413.3 -4670.48 11407.8 -4677.94C11402.3 -4685.58 11395 -4691.31 11385.9 -4695.13C11376.9 -4698.95 11367.1 -4700.86 11356.6 -4700.86C11346.1 -4700.86 11336.3 -4698.95 11327.2 -4695.13C11318.4 -4691.31 11311.3 -4685.58 11306.1 -4677.94C11300.8 -4670.48 11298.2 -4661.29 11298.2 -4650.37C11298.2 -4634.18 11303.6 -4621.63 11314.3 -4612.71C11325.3 -4603.98 11339 -4599.61 11355.5 -4599.61Z" fill="#658C4A"/>
<path d="M11539.1 -4703.32C11546 -4710.23 11555.4 -4716.05 11567.4 -4720.78C11579.3 -4725.51 11592.8 -4727.88 11607.8 -4727.88C11625 -4727.88 11640.7 -4724.6 11654.7 -4718.05C11669.1 -4711.68 11680.3 -4702.68 11688.4 -4691.03C11696.5 -4679.39 11700.6 -4666.02 11700.6 -4650.92C11700.6 -4635.82 11696.5 -4622.26 11688.4 -4610.26C11680.3 -4598.43 11669.1 -4589.15 11654.7 -4582.42C11640.7 -4575.87 11625 -4572.59 11607.8 -4572.59C11592.8 -4572.59 11579.4 -4574.87 11567.7 -4579.42C11556 -4584.15 11546.5 -4589.97 11539.1 -4596.88V-4503.55H11498.3V-4725.42H11539.1V-4703.32ZM11659 -4650.92C11659 -4661.29 11656.2 -4670.2 11650.5 -4677.66C11645 -4685.3 11637.6 -4691.03 11628.2 -4694.86C11619.2 -4698.86 11609.4 -4700.86 11598.9 -4700.86C11588.6 -4700.86 11578.8 -4698.86 11569.5 -4694.86C11560.4 -4690.85 11553 -4685.03 11547.3 -4677.39C11541.8 -4669.75 11539.1 -4660.74 11539.1 -4650.37C11539.1 -4640 11541.8 -4630.9 11547.3 -4623.08C11553 -4615.44 11560.4 -4609.62 11569.5 -4605.62C11578.8 -4601.61 11588.6 -4599.61 11598.9 -4599.61C11609.4 -4599.61 11619.2 -4601.61 11628.2 -4605.62C11637.6 -4609.8 11645 -4615.8 11650.5 -4623.63C11656.2 -4631.45 11659 -4640.55 11659 -4650.92Z" fill="#658C4A"/>
<path d="M4280.27 756.189C4085.13 846.921 4048.24 1002.64 4071.04 1131.62C4159.88 1083.58 4379.7 1134.27 4560.5 1047.89C4785.79 940.268 4800.73 731.452 4762.27 628.398C4661.89 732.517 4495.74 655.996 4280.27 756.189Z" fill="#658C4A"/>
<path d="M3616.28 980.272C3741.94 1040.24 3766.34 1142.32 3752.04 1226.73C3694.82 1195.02 3553.94 1227.67 3437.55 1170.62C3292.44 1099.54 3171.18 862.645 3195.5 795.189C3260.63 863.679 3477.52 914.095 3616.28 980.272Z" fill="#658C4A"/>
<path d="M3597 1059.57L3979.88 1350.28L3846.55 1393.01L3597 1059.57Z" fill="#E7CEC0"/>
<path d="M4333 926L3983.2 1263.61L3848.2 1199.33L4333 926Z" fill="#E7CEC0"/>
<path d="M4373.71 1020.38L4194.39 1049.33L4175 1019L4373.71 1020.38Z" fill="#E7CEC0"/>
<path d="M4214.61 901.15L4141.97 1097.72L4091.18 1099.48L4214.61 901.15Z" fill="#E7CEC0"/>
<path d="M3510.75 1155.31L3720.31 1156.77L3739.24 1203.94L3510.75 1155.31Z" fill="#E7CEC0"/>
<path d="M3670.39 1049.28L3748.96 1204.08L3729.58 1227.9L3670.39 1049.28Z" fill="#E7CEC0"/>
<path d="M3904 712L4088.46 2129.5H3719.54L3904 712Z" fill="#658C4A"/>
<path d="M5155.75 2113V2079.85H5266.97C5274.26 2079.85 5280.49 2078.45 5285.66 2075.65C5291.13 2072.58 5295.23 2068.66 5297.96 2063.91C5300.7 2059.15 5302.07 2054.11 5302.07 2048.8C5302.07 2043.76 5300.85 2039.15 5298.42 2034.95C5295.99 2030.48 5292.19 2026.98 5287.02 2024.46C5282.16 2021.67 5276.24 2020.27 5269.25 2020.27H5222.3C5207.41 2020.27 5194.34 2018.03 5183.1 2013.55C5172.16 2008.8 5163.5 2001.94 5157.12 1992.99C5151.04 1984.04 5148 1973.13 5148 1960.26C5148 1949.35 5150.89 1939.28 5156.66 1930.05C5162.43 1920.82 5170.49 1913.41 5180.82 1907.81C5191.15 1901.94 5203 1899 5216.37 1899H5323.49V1932.15H5220.47C5211.05 1932.15 5203.61 1934.81 5198.14 1940.12C5192.67 1945.44 5189.93 1951.73 5189.93 1959C5189.93 1966 5192.67 1972.15 5198.14 1977.47C5203.91 1982.5 5211.97 1985.02 5222.3 1985.02H5266.97C5283.68 1985.02 5297.66 1987.54 5308.9 1992.57C5320.45 1997.33 5329.11 2004.32 5334.88 2013.55C5340.96 2022.78 5344 2034.11 5344 2047.54C5344 2059.01 5340.96 2069.78 5334.88 2079.85C5328.81 2089.64 5320.3 2097.61 5309.36 2103.77C5298.72 2109.92 5286.26 2113 5271.98 2113H5155.75Z" fill="#658C4A"/>
<path d="M5053.64 2113C5032.7 2113 5016.22 2107.52 5004.21 2096.56C4992.51 2085.59 4986.65 2070.7 4986.65 2051.86V1844H5029.15V2049.33C5029.15 2058.61 5031.93 2066.06 5037.47 2071.68C5043.32 2077.02 5051.33 2079.69 5061.49 2079.69H5109.08V2113H5053.64ZM4946 1931.28V1897.97H5110V1931.28H4946Z" fill="#658C4A"/>
<path d="M4807 2119C4783.13 2119 4762.02 2114.08 4743.66 2104.25C4725.31 2094.14 4710.77 2080.66 4700.06 2063.8C4689.35 2046.67 4684 2027.57 4684 2006.5C4684 1985.43 4689.35 1966.47 4700.06 1949.62C4710.77 1932.48 4725.31 1919 4743.66 1909.17C4762.02 1899.06 4783.13 1894 4807 1894C4830.87 1894 4851.98 1899.06 4870.34 1909.17C4889 1919 4903.53 1932.34 4913.94 1949.2C4924.65 1966.05 4930 1985.15 4930 2006.5C4930 2027.57 4924.65 2046.67 4913.94 2063.8C4903.53 2080.66 4889 2094.14 4870.34 2104.25C4851.98 2114.08 4830.87 2119 4807 2119ZM4807 2085.71C4823.22 2085.71 4837.29 2082.2 4849.22 2075.18C4861.16 2068.16 4870.49 2058.75 4877.22 2046.95C4883.95 2034.87 4887.32 2021.39 4887.32 2006.5C4887.32 1991.61 4883.95 1978.27 4877.22 1966.47C4870.49 1954.39 4861.16 1944.84 4849.22 1937.82C4837.29 1930.8 4823.22 1927.29 4807 1927.29C4791.09 1927.29 4777.01 1930.8 4764.78 1937.82C4752.84 1944.84 4743.51 1954.39 4736.78 1966.47C4730.05 1978.27 4726.68 1991.61 4726.68 2006.5C4726.68 2021.39 4730.05 2034.87 4736.78 2046.95C4743.51 2058.75 4752.84 2068.16 4764.78 2075.18C4777.01 2082.2 4791.09 2085.71 4807 2085.71Z" fill="#658C4A"/>
<path d="M4523.5 2119C4499.73 2119 4478.71 2114.08 4460.42 2104.25C4442.14 2094.14 4427.66 2080.66 4417 2063.8C4406.33 2046.67 4401 2027.57 4401 2006.5C4401 1985.43 4406.33 1966.47 4417 1949.62C4427.66 1932.48 4442.14 1919 4460.42 1909.17C4478.71 1899.06 4499.73 1894 4523.5 1894C4547.27 1894 4568.29 1899.06 4586.58 1909.17C4605.17 1919 4619.64 1932.34 4630 1949.2C4640.67 1966.05 4646 1985.15 4646 2006.5C4646 2027.57 4640.67 2046.67 4630 2063.8C4619.64 2080.66 4605.17 2094.14 4586.58 2104.25C4568.29 2114.08 4547.27 2119 4523.5 2119ZM4523.5 2085.71C4539.65 2085.71 4553.67 2082.2 4565.55 2075.18C4577.44 2068.16 4586.73 2058.75 4593.43 2046.95C4600.14 2034.87 4603.49 2021.39 4603.49 2006.5C4603.49 1991.61 4600.14 1978.27 4593.43 1966.47C4586.73 1954.39 4577.44 1944.84 4565.55 1937.82C4553.67 1930.8 4539.65 1927.29 4523.5 1927.29C4507.65 1927.29 4493.64 1930.8 4481.45 1937.82C4469.56 1944.84 4460.27 1954.39 4453.57 1966.47C4446.86 1978.27 4443.51 1991.61 4443.51 2006.5C4443.51 2021.39 4446.86 2034.87 4453.57 2046.95C4460.27 2058.75 4469.56 2068.16 4481.45 2075.18C4493.64 2082.2 4507.65 2085.71 4523.5 2085.71Z" fill="#658C4A"/>
<path d="M4117 2113V1819H4257.36C4277.47 1819 4295.76 1823.06 4312.22 1831.18C4328.68 1839.02 4341.79 1850.22 4351.54 1864.78C4361.29 1879.06 4366.17 1895.86 4366.17 1915.18C4366.17 1934.78 4360.68 1952.14 4349.71 1967.26C4339.04 1982.1 4324.57 1993.16 4306.28 2000.44L4340.57 2064.28C4343.01 2068.76 4345.6 2072.12 4348.34 2074.36C4351.39 2076.32 4355.65 2077.3 4361.14 2077.3H4384V2113H4354.28C4342.4 2113 4331.88 2110.2 4322.74 2104.6C4313.9 2099 4306.58 2091.44 4300.79 2081.92L4262.39 2010.1C4259.34 2010.38 4255.99 2010.66 4252.33 2010.94C4248.98 2010.94 4245.47 2010.94 4241.81 2010.94H4160.89V2113H4117ZM4160.89 1975.24H4251.41C4264.52 1975.24 4276.41 1972.86 4287.08 1968.1C4298.05 1963.34 4306.58 1956.48 4312.68 1947.52C4319.08 1938.56 4322.28 1927.78 4322.28 1915.18C4322.28 1902.3 4319.08 1891.38 4312.68 1882.42C4306.28 1873.46 4297.74 1866.6 4287.08 1861.84C4276.41 1857.08 4264.67 1854.7 4251.87 1854.7H4160.89V1975.24Z" fill="#658C4A"/>
</svg>
