<svg width="713" height="360" viewBox="0 0 713 360" fill="none" xmlns="http://www.w3.org/2000/svg">
<path d="M89.0192 242.547C100.438 242.547 106.145 248.851 106.139 261.461C106.139 273.799 100.467 280.072 89.0192 280.072H41.0923V319.03H102.433C113.84 319.03 119.546 325.335 119.552 337.944C119.552 350.282 113.881 356.564 102.433 356.564H21.6853C6.56041 356.564 0 349.921 0 334.793V192.133C0 176.949 6.56041 170.362 21.6853 170.362H101.006C112.425 170.362 118.131 176.664 118.125 189.267C118.125 201.605 112.453 207.888 101.006 207.888H41.0923V242.547H89.0192Z" fill="#7DAA5F"/>
<path d="M220.53 321.327C230.512 321.327 238.49 319.324 246.488 314.456C252.16 311.01 256.196 307.869 260.752 307.869C270.205 307.869 279.309 319.609 279.309 328.492C279.309 335.932 273.022 342.813 263.607 348.251C251.318 355.416 235.362 359.706 217.675 359.706C167.451 359.706 128.93 324.762 128.93 262.904C128.93 201.32 167.167 167.231 217.391 167.231C235.938 167.231 252.197 171.815 263.607 178.401C273.06 183.848 279.309 190.738 279.309 197.885C279.309 207.052 269.6 219.077 259.902 219.077C255.336 219.077 251.337 215.926 245.637 212.49C238.5 207.907 228.801 205.619 219.102 205.619C194.279 205.619 173.444 222.228 173.444 262.619C173.491 303.276 194.846 321.327 220.53 321.327Z" fill="#7DAA5F"/>
<path d="M378.216 166.927C433.856 166.927 469.806 203.873 469.806 263.464C469.806 323.054 433.885 360 378.216 360C322.547 360 286.625 323.044 286.625 263.464C286.625 203.883 322.575 166.927 378.216 166.927ZM378.216 322.181C406.461 322.181 425.301 300.989 425.301 263.464C425.301 225.938 406.461 204.737 378.216 204.737C349.97 204.737 331.14 225.938 331.14 263.464C331.14 300.989 349.97 322.181 378.216 322.181Z" fill="#7DAA5F"/>
<path d="M351.823 39.8598C305.626 68.1602 296.891 116.732 302.289 156.962C323.322 141.977 375.361 157.788 418.164 130.844C471.498 97.2768 475.034 32.144 465.93 0C442.165 32.4762 402.831 8.60781 351.823 39.8598Z" fill="#89BC68"/>
<path d="M256.442 80.0801C286.191 98.7857 291.966 130.626 288.582 156.953C275.036 147.063 241.686 157.247 214.13 139.452C179.778 117.283 177.263 74.6137 183.02 53.5734C198.438 74.9363 223.593 59.4385 256.442 80.0801Z" fill="#658C4A"/>
<path d="M524.229 230.287C520.273 230.287 516.712 229.606 513.547 228.244C510.382 226.825 507.895 224.839 506.087 222.285C504.278 219.731 503.374 216.752 503.374 213.347H513.717C513.943 215.901 514.932 218 516.684 219.646C518.493 221.292 521.008 222.115 524.229 222.115C527.564 222.115 530.164 221.32 532.029 219.731C533.894 218.086 534.827 215.986 534.827 213.432C534.827 211.446 534.233 209.829 533.046 208.58C531.916 207.332 530.475 206.367 528.723 205.686C527.027 205.005 524.653 204.267 521.601 203.473C517.758 202.451 514.621 201.43 512.191 200.408C509.817 199.33 507.782 197.684 506.087 195.471C504.391 193.258 503.543 190.307 503.543 186.618C503.543 183.213 504.391 180.234 506.087 177.68C507.782 175.127 510.156 173.169 513.208 171.807C516.26 170.445 519.793 169.764 523.806 169.764C529.514 169.764 534.177 171.211 537.794 174.105C541.468 176.943 543.503 180.858 543.898 185.852H533.216C533.046 183.696 532.029 181.851 530.164 180.319C528.299 178.787 525.84 178.021 522.788 178.021C520.019 178.021 517.758 178.73 516.006 180.149C514.254 181.568 513.378 183.611 513.378 186.278C513.378 188.094 513.915 189.598 514.989 190.789C516.119 191.924 517.532 192.832 519.228 193.513C520.923 194.194 523.24 194.932 526.179 195.727C530.079 196.805 533.244 197.883 535.675 198.961C538.161 200.039 540.253 201.714 541.948 203.983C543.7 206.197 544.576 209.176 544.576 212.921C544.576 215.929 543.757 218.767 542.118 221.434C540.535 224.101 538.19 226.257 535.081 227.903C532.029 229.492 528.412 230.287 524.229 230.287Z" fill="#658C4A"/>
<path d="M580.142 182.022C583.703 182.022 586.868 182.788 589.638 184.32C592.464 185.852 594.668 188.122 596.25 191.13C597.889 194.138 598.709 197.769 598.709 202.026V229.691H589.129V203.473C589.129 199.273 588.083 196.067 585.992 193.854C583.901 191.584 581.047 190.449 577.43 190.449C573.812 190.449 570.93 191.584 568.782 193.854C566.691 196.067 565.645 199.273 565.645 203.473V229.691H555.98V166.7H565.645V188.236C567.284 186.249 569.347 184.717 571.834 183.639C574.377 182.561 577.147 182.022 580.142 182.022Z" fill="#658C4A"/>
<path d="M631.299 230.457C626.891 230.457 622.906 229.464 619.345 227.477C615.785 225.435 612.987 222.597 610.952 218.965C608.918 215.276 607.9 211.02 607.9 206.197C607.9 201.43 608.946 197.202 611.037 193.513C613.128 189.825 615.982 186.987 619.6 185.001C623.217 183.015 627.258 182.022 631.723 182.022C636.188 182.022 640.229 183.015 643.846 185.001C647.464 186.987 650.318 189.825 652.409 193.513C654.5 197.202 655.546 201.43 655.546 206.197C655.546 210.964 654.472 215.191 652.324 218.88C650.177 222.569 647.238 225.435 643.507 227.477C639.833 229.464 635.764 230.457 631.299 230.457ZM631.299 222.03C633.786 222.03 636.103 221.434 638.251 220.242C640.455 219.05 642.236 217.263 643.592 214.879C644.948 212.496 645.627 209.602 645.627 206.197C645.627 202.792 644.977 199.926 643.677 197.599C642.377 195.216 640.653 193.428 638.505 192.236C636.358 191.045 634.04 190.449 631.553 190.449C629.067 190.449 626.749 191.045 624.602 192.236C622.51 193.428 620.843 195.216 619.6 197.599C618.356 199.926 617.734 202.792 617.734 206.197C617.734 211.247 619.006 215.163 621.55 217.944C624.149 220.668 627.399 222.03 631.299 222.03Z" fill="#658C4A"/>
<path d="M674.765 189.683C676.404 187.526 678.636 185.71 681.462 184.235C684.288 182.759 687.482 182.022 691.042 182.022C695.112 182.022 698.814 183.043 702.148 185.086C705.539 187.072 708.196 189.881 710.118 193.513C712.039 197.145 713 201.316 713 206.026C713 210.737 712.039 214.964 710.118 218.71C708.196 222.398 705.539 225.293 702.148 227.392C698.814 229.435 695.112 230.457 691.042 230.457C687.482 230.457 684.316 229.747 681.547 228.329C678.778 226.853 676.517 225.037 674.765 222.881V251.993H665.1V182.788H674.765V189.683ZM703.166 206.026C703.166 202.792 702.487 200.011 701.131 197.684C699.831 195.301 698.079 193.513 695.875 192.322C693.727 191.073 691.41 190.449 688.923 190.449C686.493 190.449 684.175 191.073 681.971 192.322C679.823 193.57 678.071 195.386 676.715 197.769C675.415 200.153 674.765 202.962 674.765 206.197C674.765 209.431 675.415 212.269 676.715 214.709C678.071 217.092 679.823 218.908 681.971 220.157C684.175 221.405 686.493 222.03 688.923 222.03C691.41 222.03 693.727 221.405 695.875 220.157C698.079 218.852 699.831 216.979 701.131 214.539C702.487 212.099 703.166 209.261 703.166 206.026Z" fill="#658C4A"/>
</svg>
