<svg width="60" height="60" viewBox="0 0 60 60" fill="none" xmlns="http://www.w3.org/2000/svg">
<g id="shipping">
<path id="Vector" d="M15 50C12.9167 50 11.1459 49.2708 9.68752 47.8125C8.22919 46.3542 7.50002 44.5833 7.50002 42.5C6.12502 42.5 4.94752 42.01 3.96752 41.03C2.98752 40.05 2.49835 38.8733 2.50002 37.5V15C2.50002 13.625 2.99002 12.4475 3.97002 11.4675C4.95002 10.4875 6.12669 9.99834 7.50002 10H37.5C38.875 10 40.0525 10.49 41.0325 11.47C42.0125 12.45 42.5017 13.6267 42.5 15V20H48.75C49.1667 20 49.5417 20.0833 49.875 20.25C50.2084 20.4167 50.5 20.6667 50.75 21L57 29.3125C57.1667 29.5208 57.2917 29.75 57.375 30C57.4584 30.25 57.5 30.5208 57.5 30.8125V40C57.5 40.7083 57.26 41.3025 56.78 41.7825C56.3 42.2625 55.7067 42.5017 55 42.5H52.5C52.5 44.5833 51.7708 46.3542 50.3125 47.8125C48.8542 49.2708 47.0833 50 45 50C42.9167 50 41.1459 49.2708 39.6875 47.8125C38.2292 46.3542 37.5 44.5833 37.5 42.5H22.5C22.5 44.5833 21.7709 46.3542 20.3125 47.8125C18.8542 49.2708 17.0834 50 15 50ZM15 45C15.7084 45 16.3025 44.76 16.7825 44.28C17.2625 43.8 17.5017 43.2067 17.5 42.5C17.5 41.7917 17.26 41.1975 16.78 40.7175C16.3 40.2375 15.7067 39.9983 15 40C14.2917 40 13.6975 40.24 13.2175 40.72C12.7375 41.2 12.4984 41.7933 12.5 42.5C12.5 43.2083 12.74 43.8025 13.22 44.2825C13.7 44.7625 14.2934 45.0017 15 45ZM45 45C45.7084 45 46.3025 44.76 46.7825 44.28C47.2625 43.8 47.5017 43.2067 47.5 42.5C47.5 41.7917 47.26 41.1975 46.78 40.7175C46.3 40.2375 45.7067 39.9983 45 40C44.2917 40 43.6975 40.24 43.2175 40.72C42.7375 41.2 42.4983 41.7933 42.5 42.5C42.5 43.2083 42.74 43.8025 43.22 44.2825C43.7 44.7625 44.2934 45.0017 45 45ZM42.5 32.5H53.125L47.5 25H42.5V32.5Z" fill="#999999"/>
</g>
</svg>
