<svg width="6028" height="1852" viewBox="0 0 6028 1852" fill="none" xmlns="http://www.w3.org/2000/svg">
<path d="M1847.52 1306.96C1826.25 1306.96 1807.85 1301.94 1792.33 1291.89C1776.81 1281.56 1764.88 1267.63 1756.55 1250.12C1748.21 1232.61 1744.05 1213.24 1744.05 1192C1744.05 1170.47 1748.64 1151.09 1757.84 1133.87C1767.04 1116.36 1780.26 1102.58 1797.51 1092.53C1814.75 1082.2 1835.45 1077.03 1859.59 1077.03C1882.87 1077.03 1902.85 1082.05 1919.52 1092.1C1936.19 1102.15 1948.98 1115.78 1957.89 1133.01C1967.09 1150.23 1971.69 1169.46 1971.69 1190.7V1301.79H1931.59V1257.01H1930.73C1926.42 1265.34 1920.53 1273.38 1913.05 1281.13C1905.87 1288.59 1896.81 1294.76 1885.89 1299.64C1874.97 1304.52 1862.18 1306.96 1847.52 1306.96ZM1857.87 1272.95C1872.24 1272.95 1884.89 1269.5 1895.81 1262.61C1907.02 1255.44 1915.64 1245.68 1921.68 1233.33C1928 1220.7 1931.16 1206.64 1931.16 1191.13C1931.16 1175.92 1928.14 1162.29 1922.11 1150.23C1916.36 1138.17 1908.02 1128.7 1897.1 1121.81C1886.18 1114.63 1873.39 1111.05 1858.73 1111.05C1843.21 1111.05 1829.84 1114.63 1818.63 1121.81C1807.71 1128.99 1799.23 1138.75 1793.2 1151.09C1787.45 1163.15 1784.57 1176.93 1784.57 1192.43C1784.57 1207.35 1787.45 1220.99 1793.2 1233.33C1798.94 1245.39 1807.28 1255 1818.2 1262.18C1829.12 1269.36 1842.35 1272.95 1857.87 1272.95Z" fill="#57843A"/>
<path d="M1300.17 1306.96C1278.9 1306.96 1260.51 1301.94 1244.98 1291.89C1229.46 1281.56 1217.53 1267.63 1209.2 1250.12C1200.86 1232.61 1196.7 1213.24 1196.7 1192C1196.7 1170.47 1201.3 1151.09 1210.49 1133.87C1219.69 1116.36 1232.91 1102.58 1250.16 1092.53C1267.4 1082.2 1288.1 1077.03 1312.24 1077.03C1335.52 1077.03 1355.5 1082.05 1372.17 1092.1C1388.84 1102.15 1401.63 1115.78 1410.54 1133.01C1419.74 1150.23 1424.34 1169.46 1424.34 1190.7V1301.79H1384.24V1257.01H1383.38C1379.07 1265.34 1373.18 1273.38 1365.7 1281.13C1358.52 1288.59 1349.46 1294.76 1338.54 1299.64C1327.62 1304.52 1314.83 1306.96 1300.17 1306.96ZM1310.52 1272.95C1324.89 1272.95 1337.54 1269.5 1348.46 1262.61C1359.67 1255.44 1368.29 1245.68 1374.33 1233.33C1380.65 1220.7 1383.81 1206.64 1383.81 1191.13C1383.81 1175.92 1380.79 1162.29 1374.76 1150.23C1369.01 1138.17 1360.67 1128.7 1349.75 1121.81C1338.83 1114.63 1326.04 1111.05 1311.38 1111.05C1295.86 1111.05 1282.49 1114.63 1271.28 1121.81C1260.36 1128.99 1251.88 1138.75 1245.85 1151.09C1240.1 1163.15 1237.22 1176.93 1237.22 1192.43C1237.22 1207.35 1240.1 1220.99 1245.85 1233.33C1251.6 1245.39 1259.93 1255 1270.85 1262.18C1281.78 1269.36 1295 1272.95 1310.52 1272.95Z" fill="#57843A"/>
<path d="M1106.04 1301.79V987.468H1145.7V1301.79H1106.04Z" fill="#57843A"/>
<path d="M918.711 1306.96C897.441 1306.96 879.046 1301.94 863.525 1291.89C848.004 1281.56 836.075 1267.63 827.74 1250.12C819.405 1232.61 815.237 1213.24 815.237 1192C815.237 1170.47 819.836 1151.09 829.033 1133.87C838.231 1116.36 851.453 1102.58 868.698 1092.53C885.944 1082.2 906.639 1077.03 930.783 1077.03C954.065 1077.03 974.041 1082.05 990.712 1092.1C1007.38 1102.15 1020.17 1115.78 1029.08 1133.01C1038.28 1150.23 1042.88 1169.46 1042.88 1190.7V1301.79H1002.78V1257.01H1001.92C997.61 1265.34 991.718 1273.38 984.245 1281.13C977.059 1288.59 968.005 1294.76 957.083 1299.64C946.16 1304.52 933.37 1306.96 918.711 1306.96ZM929.058 1272.95C943.43 1272.95 956.077 1269.5 966.999 1262.61C978.209 1255.44 986.831 1245.68 992.867 1233.33C999.191 1220.7 1002.35 1206.64 1002.35 1191.13C1002.35 1175.92 999.334 1162.29 993.299 1150.23C987.55 1138.17 979.215 1128.7 968.292 1121.81C957.37 1114.63 944.58 1111.05 929.921 1111.05C914.4 1111.05 901.034 1114.63 889.824 1121.81C878.902 1128.99 870.423 1138.75 864.387 1151.09C858.638 1163.15 855.764 1176.93 855.764 1192.43C855.764 1207.35 858.638 1220.99 864.387 1233.33C870.136 1245.39 878.471 1255 889.393 1262.18C900.316 1269.36 913.537 1272.95 929.058 1272.95Z" fill="#57843A"/>
<path d="M408.797 1301.79V1169.61C408.797 1152.67 412.677 1137.17 420.438 1123.1C428.198 1109.04 439.408 1097.84 454.067 1089.52C468.726 1081.19 486.402 1077.03 507.097 1077.03C517.157 1077.03 527.217 1078.47 537.277 1081.34C547.337 1083.92 556.679 1088.51 565.301 1095.11C573.924 1101.43 580.823 1110.04 585.996 1120.95H586.427C592.176 1110.04 599.362 1101.43 607.985 1095.11C616.607 1088.51 625.949 1083.92 636.009 1081.34C646.069 1078.47 656.272 1077.03 666.62 1077.03C687.027 1077.03 704.56 1081.19 719.219 1089.52C733.878 1097.84 745.088 1109.04 752.848 1123.1C760.609 1137.17 764.489 1152.67 764.489 1169.61V1301.79H724.824V1169.61C724.824 1158.7 722.237 1148.79 717.064 1139.9C711.89 1131 704.848 1123.96 695.938 1118.8C687.315 1113.63 677.398 1111.05 666.189 1111.05C655.266 1111.05 645.206 1113.77 636.009 1119.23C626.811 1124.39 619.482 1131.43 614.021 1140.33C608.847 1148.94 606.26 1158.7 606.26 1169.61V1301.79H566.595V1169.61C566.595 1158.7 563.864 1148.94 558.403 1140.33C553.23 1131.43 546.044 1124.39 536.846 1119.23C527.936 1113.77 517.876 1111.05 506.666 1111.05C495.744 1111.05 485.828 1113.63 476.917 1118.8C468.294 1123.96 461.396 1131 456.223 1139.9C451.049 1148.79 448.462 1158.7 448.462 1169.61V1301.79H408.797Z" fill="#57843A"/>
<path d="M306.063 1301.8V1082.2H346.159V1301.8H306.063ZM326.327 1047.32C319.141 1047.32 312.817 1044.74 307.356 1039.57C302.183 1034.12 299.596 1027.8 299.596 1020.62C299.596 1013.45 302.183 1007.28 307.356 1002.11C312.817 996.655 319.141 993.928 326.327 993.928C333.512 993.928 339.692 996.655 344.866 1002.11C350.327 1007.28 353.057 1013.45 353.057 1020.62C353.057 1027.8 350.327 1034.12 344.866 1039.57C339.692 1044.74 333.512 1047.32 326.327 1047.32Z" fill="#57843A"/>
<path d="M0 1301.79V1000.39H41.3896V1129.99H200.481V1000.39H241.871V1301.79H200.481V1166.59H41.3896V1301.79H0Z" fill="#57843A"/>
<path d="M5199.14 -5037.55C5234.44 -5037.55 5252.08 -5016.32 5252.06 -4973.85C5252.06 -4932.29 5234.53 -4911.17 5199.14 -4911.17H5050.98V-4779.96H5240.6C5275.86 -4779.96 5293.5 -4758.72 5293.52 -4716.25C5293.52 -4674.7 5275.99 -4653.54 5240.6 -4653.54H4990.99C4944.24 -4653.54 4923.96 -4675.92 4923.96 -4726.87V-5207.34C4923.96 -5258.48 4944.24 -5280.66 4990.99 -5280.66H5236.19C5271.49 -5280.66 5289.13 -5259.44 5289.11 -5216.99C5289.11 -5175.44 5271.58 -5154.28 5236.19 -5154.28H5050.98V-5037.55H5199.14Z" fill="#7DAA5F"/>
<path d="M5605.67 -4772.22C5636.53 -4772.22 5661.19 -4778.97 5685.91 -4795.36C5703.44 -4806.97 5715.92 -4817.55 5730 -4817.55C5759.23 -4817.55 5787.37 -4778.01 5787.37 -4748.09C5787.37 -4723.03 5767.93 -4699.86 5738.83 -4681.54C5700.84 -4657.41 5651.52 -4642.96 5596.84 -4642.96C5441.59 -4642.96 5322.51 -4760.65 5322.51 -4968.99C5322.51 -5176.4 5440.71 -5291.21 5595.97 -5291.21C5653.3 -5291.21 5703.56 -5275.77 5738.83 -5253.59C5768.05 -5235.24 5787.37 -5212.04 5787.37 -5187.97C5787.37 -5157.09 5757.36 -5116.6 5727.37 -5116.6C5713.26 -5116.6 5700.9 -5127.21 5683.28 -5138.78C5661.22 -5154.22 5631.24 -5161.92 5601.25 -5161.92C5524.52 -5161.92 5460.12 -5105.98 5460.12 -4969.95C5460.26 -4833.02 5526.27 -4772.22 5605.67 -4772.22Z" fill="#7DAA5F"/>
<path d="M6093.11 -5292.23C6265.11 -5292.23 6376.23 -5167.8 6376.23 -4967.1C6376.23 -4766.4 6265.19 -4641.97 6093.11 -4641.97C5921.02 -4641.97 5809.98 -4766.44 5809.98 -4967.1C5809.98 -5167.77 5921.11 -5292.23 6093.11 -5292.23ZM6093.11 -4769.35C6180.42 -4769.35 6238.66 -4840.72 6238.66 -4967.1C6238.66 -5093.49 6180.42 -5164.89 6093.11 -5164.89C6005.79 -5164.89 5947.59 -5093.49 5947.59 -4967.1C5947.59 -4840.72 6005.79 -4769.35 6093.11 -4769.35Z" fill="#7DAA5F"/>
<path d="M1834.06 566.319C1691.26 661.634 1664.26 825.223 1680.94 960.715C1745.96 910.245 1906.82 963.496 2039.14 872.752C2204.01 759.698 2214.93 540.333 2186.79 432.073C2113.33 541.451 1991.74 461.064 1834.06 566.319Z" fill="#89BC68"/>
<path d="M1355.75 795.328C1447.71 858.328 1465.57 965.565 1455.11 1054.23C1413.23 1020.93 1310.14 1055.22 1224.96 995.291C1118.77 920.624 1110.99 776.917 1128.79 706.054C1176.45 778.003 1254.21 725.807 1355.75 795.328Z" fill="#658C4A"/>
<path d="M6544.47 -5078.84C6532.24 -5078.84 6521.23 -5081.13 6511.45 -5085.72C6501.66 -5090.5 6493.98 -5097.19 6488.39 -5105.79C6482.8 -5114.39 6480 -5124.43 6480 -5135.89H6511.97C6512.67 -5127.29 6515.73 -5120.22 6521.14 -5114.68C6526.74 -5109.14 6534.51 -5106.36 6544.47 -5106.36C6554.78 -5106.36 6562.81 -5109.04 6568.58 -5114.39C6574.34 -5119.93 6577.23 -5127.01 6577.23 -5135.61C6577.23 -5142.3 6575.39 -5147.74 6571.72 -5151.95C6568.23 -5156.15 6563.77 -5159.4 6558.36 -5161.7C6553.12 -5163.99 6545.78 -5166.47 6536.34 -5169.15C6524.46 -5172.59 6514.77 -5176.03 6507.25 -5179.47C6499.92 -5183.1 6493.63 -5188.64 6488.39 -5196.1C6483.14 -5203.55 6480.52 -5213.49 6480.52 -5225.91C6480.52 -5237.38 6483.14 -5247.42 6488.39 -5256.02C6493.63 -5264.62 6500.97 -5271.21 6510.4 -5275.8C6519.83 -5280.39 6530.75 -5282.68 6543.16 -5282.68C6560.8 -5282.68 6575.22 -5277.81 6586.4 -5268.06C6597.76 -5258.5 6604.05 -5245.31 6605.27 -5228.49H6572.25C6571.72 -5235.76 6568.58 -5241.97 6562.81 -5247.13C6557.05 -5252.29 6549.45 -5254.87 6540.01 -5254.87C6531.45 -5254.87 6524.46 -5252.48 6519.05 -5247.7C6513.63 -5242.92 6510.92 -5236.04 6510.92 -5227.06C6510.92 -5220.94 6512.58 -5215.88 6515.9 -5211.87C6519.4 -5208.04 6523.77 -5204.99 6529.01 -5202.69C6534.25 -5200.4 6541.41 -5197.91 6550.5 -5195.24C6562.55 -5191.61 6572.34 -5187.98 6579.85 -5184.34C6587.54 -5180.71 6594 -5175.07 6599.24 -5167.43C6604.66 -5159.98 6607.37 -5149.94 6607.37 -5137.33C6607.37 -5127.2 6604.83 -5117.64 6599.77 -5108.66C6594.87 -5099.67 6587.62 -5092.41 6578.01 -5086.87C6568.58 -5081.52 6557.4 -5078.84 6544.47 -5078.84Z" fill="#658C4A"/>
<path d="M6717.31 -5241.4C6728.31 -5241.4 6738.1 -5238.82 6746.66 -5233.65C6755.4 -5228.49 6762.21 -5220.85 6767.1 -5210.72C6772.17 -5200.59 6774.7 -5188.36 6774.7 -5174.02V-5080.85H6745.09V-5169.15C6745.09 -5183.29 6741.86 -5194.09 6735.39 -5201.55C6728.93 -5209.19 6720.1 -5213.01 6708.92 -5213.01C6697.74 -5213.01 6688.83 -5209.19 6682.19 -5201.55C6675.73 -5194.09 6672.49 -5183.29 6672.49 -5169.15V-5080.85H6642.62V-5293H6672.49V-5220.47C6677.56 -5227.16 6683.94 -5232.32 6691.63 -5235.95C6699.49 -5239.58 6708.05 -5241.4 6717.31 -5241.4Z" fill="#658C4A"/>
<path d="M6875.44 -5078.27C6861.82 -5078.27 6849.5 -5081.61 6838.49 -5088.3C6827.49 -5095.18 6818.84 -5104.74 6812.55 -5116.97C6806.26 -5129.39 6803.11 -5143.73 6803.11 -5159.98C6803.11 -5176.03 6806.35 -5190.27 6812.81 -5202.69C6819.27 -5215.12 6828.1 -5224.67 6839.28 -5231.36C6850.46 -5238.05 6862.95 -5241.4 6876.75 -5241.4C6890.56 -5241.4 6903.05 -5238.05 6914.23 -5231.36C6925.41 -5224.67 6934.24 -5215.12 6940.7 -5202.69C6947.16 -5190.27 6950.4 -5176.03 6950.4 -5159.98C6950.4 -5143.92 6947.08 -5129.68 6940.44 -5117.26C6933.8 -5104.83 6924.71 -5095.18 6913.18 -5088.3C6901.83 -5081.61 6889.25 -5078.27 6875.44 -5078.27ZM6875.44 -5106.65C6883.13 -5106.65 6890.3 -5108.66 6896.93 -5112.67C6903.75 -5116.68 6909.25 -5122.71 6913.44 -5130.73C6917.64 -5138.76 6919.73 -5148.51 6919.73 -5159.98C6919.73 -5171.44 6917.73 -5181.09 6913.71 -5188.93C6909.69 -5196.96 6904.36 -5202.98 6897.72 -5206.99C6891.08 -5211.01 6883.92 -5213.01 6876.23 -5213.01C6868.54 -5213.01 6861.38 -5211.01 6854.74 -5206.99C6848.28 -5202.98 6843.12 -5196.96 6839.28 -5188.93C6835.44 -5181.09 6833.51 -5171.44 6833.51 -5159.98C6833.51 -5142.96 6837.44 -5129.78 6845.31 -5120.41C6853.34 -5111.24 6863.39 -5106.65 6875.44 -5106.65Z" fill="#658C4A"/>
<path d="M7009.81 -5215.59C7014.87 -5222.86 7021.77 -5228.97 7030.51 -5233.94C7039.25 -5238.91 7049.12 -5241.4 7060.12 -5241.4C7072.7 -5241.4 7084.15 -5237.96 7094.45 -5231.07C7104.94 -5224.39 7113.15 -5214.92 7119.09 -5202.69C7125.03 -5190.46 7128 -5176.41 7128 -5160.55C7128 -5144.68 7125.03 -5130.45 7119.09 -5117.83C7113.15 -5105.41 7104.94 -5095.66 7094.45 -5088.59C7084.15 -5081.71 7072.7 -5078.27 7060.12 -5078.27C7049.12 -5078.27 7039.33 -5080.66 7030.77 -5085.44C7022.21 -5090.4 7015.22 -5096.52 7009.81 -5103.78V-5005.73H6979.93V-5238.82H7009.81V-5215.59ZM7097.6 -5160.55C7097.6 -5171.44 7095.5 -5180.81 7091.31 -5188.64C7087.29 -5196.67 7081.88 -5202.69 7075.06 -5206.71C7068.42 -5210.91 7061.26 -5213.01 7053.57 -5213.01C7046.06 -5213.01 7038.9 -5210.91 7032.08 -5206.71C7025.44 -5202.5 7020.03 -5196.38 7015.83 -5188.36C7011.82 -5180.33 7009.81 -5170.87 7009.81 -5159.98C7009.81 -5149.08 7011.82 -5139.52 7015.83 -5131.31C7020.03 -5123.28 7025.44 -5117.16 7032.08 -5112.96C7038.9 -5108.75 7046.06 -5106.65 7053.57 -5106.65C7061.26 -5106.65 7068.42 -5108.75 7075.06 -5112.96C7081.88 -5117.35 7087.29 -5123.66 7091.31 -5131.88C7095.5 -5140.1 7097.6 -5149.65 7097.6 -5160.55Z" fill="#658C4A"/>
<path d="M1834.06 566.319C1691.26 661.634 1664.26 825.223 1680.94 960.715C1745.96 910.245 1906.82 963.496 2039.14 872.752C2204.01 759.698 2214.93 540.333 2186.79 432.073C2113.33 541.451 1991.74 461.064 1834.06 566.319Z" fill="#89BC68"/>
<path d="M1355.75 795.328C1447.71 858.328 1465.57 965.565 1455.11 1054.23C1413.23 1020.93 1310.14 1055.22 1224.96 995.291C1118.77 920.624 1110.99 776.917 1128.79 706.054C1176.45 778.003 1254.21 725.807 1355.75 795.328Z" fill="#658C4A"/>
<path d="M1358.37 970.068L1621.21 1102.52L1572.9 1171.43L1358.37 970.068Z" fill="#E5BFA2"/>
<path d="M1764.34 839.747L1613.7 1092.37L1548.24 1039.42L1764.34 839.747Z" fill="#E5BFA2"/>
<path d="M1578.05 698.17L1675.77 1563.54H1480.33L1578.05 698.17Z" fill="#658C4A"/>
<path d="M2386.18 1549.25V1526.84H2454.99C2459.5 1526.84 2463.35 1525.89 2466.55 1524C2469.93 1521.92 2472.47 1519.28 2474.16 1516.06C2475.86 1512.85 2476.7 1509.44 2476.7 1505.85C2476.7 1502.45 2475.95 1499.33 2474.45 1496.49C2472.94 1493.47 2470.59 1491.1 2467.4 1489.4C2464.39 1487.51 2460.72 1486.56 2456.4 1486.56H2427.35C2418.14 1486.56 2410.06 1485.05 2403.1 1482.03C2396.33 1478.81 2390.97 1474.18 2387.03 1468.13C2383.27 1462.08 2381.39 1454.7 2381.39 1446.01C2381.39 1438.63 2383.17 1431.82 2386.74 1425.58C2390.32 1419.35 2395.3 1414.33 2401.69 1410.55C2408.08 1406.58 2415.41 1404.6 2423.69 1404.6H2489.96V1427H2426.22C2420.4 1427 2415.79 1428.8 2412.41 1432.39C2409.02 1435.98 2407.33 1440.24 2407.33 1445.16C2407.33 1449.88 2409.02 1454.04 2412.41 1457.63C2415.98 1461.04 2420.96 1462.74 2427.35 1462.74H2454.99C2465.33 1462.74 2473.98 1464.44 2480.93 1467.85C2488.08 1471.06 2493.43 1475.79 2497.01 1482.03C2500.76 1488.27 2502.64 1495.92 2502.64 1505C2502.64 1512.75 2500.76 1520.03 2497.01 1526.84C2493.25 1533.46 2487.98 1538.85 2481.21 1543.01C2474.63 1547.17 2466.93 1549.25 2458.09 1549.25H2386.18Z" fill="#57843A"/>
<path d="M2323.08 1549.25C2310.18 1549.25 2300.03 1545.54 2292.63 1538.14C2285.41 1530.74 2281.81 1520.68 2281.81 1507.96V1367.59H2308V1506.25C2308 1512.52 2309.7 1517.55 2313.12 1521.34C2316.72 1524.95 2321.66 1526.75 2327.92 1526.75H2357.24V1549.25H2323.08ZM2256.76 1426.53V1404.04H2357.81V1426.53H2256.76Z" fill="#57843A"/>
<path d="M2170.87 1552.61C2156.16 1552.61 2143.15 1549.3 2131.84 1542.69C2120.53 1535.88 2111.58 1526.81 2104.98 1515.47C2098.38 1503.95 2095.08 1491.1 2095.08 1476.92C2095.08 1462.75 2098.38 1449.99 2104.98 1438.65C2111.58 1427.12 2120.53 1418.05 2131.84 1411.44C2143.15 1404.63 2156.16 1401.23 2170.87 1401.23C2185.57 1401.23 2198.58 1404.63 2209.89 1411.44C2221.39 1418.05 2230.35 1427.03 2236.76 1438.37C2243.36 1449.71 2246.65 1462.56 2246.65 1476.92C2246.65 1491.1 2243.36 1503.95 2236.76 1515.47C2230.35 1526.81 2221.39 1535.88 2209.89 1542.69C2198.58 1549.3 2185.57 1552.61 2170.87 1552.61ZM2170.87 1530.22C2180.86 1530.22 2189.53 1527.85 2196.88 1523.13C2204.24 1518.4 2209.99 1512.07 2214.13 1504.14C2218.28 1496.01 2220.36 1486.94 2220.36 1476.92C2220.36 1466.91 2218.28 1457.93 2214.13 1449.99C2209.99 1441.86 2204.24 1435.44 2196.88 1430.71C2189.53 1425.99 2180.86 1423.63 2170.87 1423.63C2161.06 1423.63 2152.39 1425.99 2144.85 1430.71C2137.5 1435.44 2131.75 1441.86 2127.6 1449.99C2123.45 1457.93 2121.38 1466.91 2121.38 1476.92C2121.38 1486.94 2123.45 1496.01 2127.6 1504.14C2131.75 1512.07 2137.5 1518.4 2144.85 1523.13C2152.39 1527.85 2161.06 1530.22 2170.87 1530.22Z" fill="#57843A"/>
<path d="M1995.72 1552.61C1981.01 1552.61 1968 1549.3 1956.69 1542.69C1945.38 1535.88 1936.43 1526.81 1929.83 1515.47C1923.23 1503.95 1919.93 1491.1 1919.93 1476.92C1919.93 1462.75 1923.23 1449.99 1929.83 1438.65C1936.43 1427.12 1945.38 1418.05 1956.69 1411.44C1968 1404.63 1981.01 1401.23 1995.72 1401.23C2010.42 1401.23 2023.43 1404.63 2034.74 1411.44C2046.24 1418.05 2055.2 1427.03 2061.61 1438.37C2068.2 1449.71 2071.5 1462.56 2071.5 1476.92C2071.5 1491.1 2068.2 1503.95 2061.61 1515.47C2055.2 1526.81 2046.24 1535.88 2034.74 1542.69C2023.43 1549.3 2010.42 1552.61 1995.72 1552.61ZM1995.72 1530.22C2005.71 1530.22 2014.38 1527.85 2021.73 1523.13C2029.08 1518.4 2034.83 1512.07 2038.98 1504.14C2043.13 1496.01 2045.2 1486.94 2045.2 1476.92C2045.2 1466.91 2043.13 1457.93 2038.98 1449.99C2034.83 1441.86 2029.08 1435.44 2021.73 1430.71C2014.38 1425.99 2005.71 1423.63 1995.72 1423.63C1985.91 1423.63 1977.24 1425.99 1969.7 1430.71C1962.35 1435.44 1956.6 1441.86 1952.45 1449.99C1948.3 1457.93 1946.23 1466.91 1946.23 1476.92C1946.23 1486.94 1948.3 1496.01 1952.45 1504.14C1956.6 1512.07 1962.35 1518.4 1969.7 1523.13C1977.24 1527.85 1985.91 1530.22 1995.72 1530.22Z" fill="#57843A"/>
<path d="M1744.78 1549.25V1350.77H1831.54C1843.98 1350.77 1855.28 1353.51 1865.45 1359C1875.63 1364.29 1883.73 1371.85 1889.76 1381.68C1895.79 1391.32 1898.8 1402.66 1898.8 1415.7C1898.8 1428.93 1895.41 1440.65 1888.63 1450.86C1882.03 1460.88 1873.08 1468.34 1861.78 1473.26L1882.98 1516.36C1884.48 1519.38 1886.09 1521.65 1887.78 1523.16C1889.66 1524.48 1892.3 1525.15 1895.69 1525.15H1909.82V1549.25H1891.45C1884.11 1549.25 1877.61 1547.36 1871.95 1543.58C1866.49 1539.79 1861.97 1534.69 1858.39 1528.26L1834.65 1479.78C1832.77 1479.97 1830.69 1480.16 1828.43 1480.35C1826.36 1480.35 1824.19 1480.35 1821.93 1480.35H1771.91V1549.25H1744.78ZM1771.91 1456.25H1827.87C1835.97 1456.25 1843.32 1454.64 1849.91 1451.43C1856.69 1448.21 1861.97 1443.58 1865.74 1437.53C1869.69 1431.49 1871.67 1424.21 1871.67 1415.7C1871.67 1407.01 1869.69 1399.64 1865.74 1393.59C1861.78 1387.54 1856.5 1382.91 1849.91 1379.69C1843.32 1376.48 1836.06 1374.87 1828.15 1374.87H1771.91V1456.25Z" fill="#57843A"/>
</svg>
