<svg width="60" height="60" viewBox="0 0 60 60" fill="none" xmlns="http://www.w3.org/2000/svg">
<g id="smile">
<path id="Vector" fill-rule="evenodd" clip-rule="evenodd" d="M30 55C43.8075 55 55 43.8075 55 30C55 16.1925 43.8075 5 30 5C16.1925 5 5 16.1925 5 30C5 43.8075 16.1925 55 30 55ZM20.9925 38.8825C21.1393 38.6846 21.3237 38.5175 21.5351 38.3909C21.7466 38.2643 21.9809 38.1806 22.2247 38.1446C22.4685 38.1086 22.717 38.121 22.956 38.1811C23.195 38.2413 23.4198 38.3479 23.6175 38.495C25.4375 39.845 27.635 40.625 30 40.625C32.365 40.625 34.5625 39.8425 36.3825 38.495C36.5796 38.3416 36.8054 38.2291 37.0466 38.1642C37.2879 38.0993 37.5396 38.0832 37.7871 38.1169C38.0346 38.1506 38.2729 38.2335 38.4879 38.3606C38.703 38.4876 38.8905 38.6564 39.0394 38.857C39.1883 39.0575 39.2956 39.2858 39.3551 39.5284C39.4146 39.771 39.425 40.0231 39.3857 40.2698C39.3463 40.5164 39.2582 40.7528 39.1262 40.9649C38.9943 41.177 38.8214 41.3607 38.6175 41.505C36.1293 43.3653 33.1067 44.372 30 44.375C26.8933 44.372 23.8707 43.3653 21.3825 41.505C20.9831 41.2089 20.7176 40.7663 20.6445 40.2745C20.5713 39.7827 20.6965 39.282 20.9925 38.8825ZM40 26.25C40 28.32 38.88 30 37.5 30C36.12 30 35 28.32 35 26.25C35 24.18 36.12 22.5 37.5 22.5C38.88 22.5 40 24.18 40 26.25ZM22.5 30C23.88 30 25 28.32 25 26.25C25 24.18 23.88 22.5 22.5 22.5C21.12 22.5 20 24.18 20 26.25C20 28.32 21.12 30 22.5 30Z" fill="#999999"/>
</g>
</svg>
